# xmcd
#
# Track frame offsets:
#	150
#	15250
#	44067
#	67892
#	86370
#	107272
#	131380
#	152887
#	173840
#	201837
#	223005
#	247342
#
# Disc length: 3571 seconds
#
# Revision: 1
# Processed by: cddbd v1.5.1PL0 Copyright (c) Steve Scherf et al.
# Submitted via: CDex 1.50Beta5
#
DISCID=9d0df10c
DTITLE=友部正人 - 友部正人ベスト・セレクション
DYEAR=1991
DGENRE=Pop
TTITLE0=反復
TTITLE1=公園のD51
TTITLE2=あれは忘れもの
TTITLE3=空が落ちてくる
TTITLE4=密漁の夜
TTITLE5=夕暮れ
TTITLE6=誰も僕の絵を描けないだろう
TTITLE7=お日様がおっことしたものはコールタールの黒
TTITLE8=おしゃべりなカラス
TTITLE9=悦子
TTITLE10=ひとりの部屋に居て
TTITLE11=あいてるドアから失礼しますよ
EXTD=
EXTT0=
EXTT1=
EXTT2=
EXTT3=
EXTT4=
EXTT5=
EXTT6=
EXTT7=
EXTT8=
EXTT9=
EXTT10=
EXTT11=
PLAYORDER=
